# Blender 5.0.1
# www.blender.org
o core_speedportal
v 0.138889 0.375000 -0.000000
v -0.861111 0.375000 -0.500000
v -0.561110 0.375000 -0.000000
v 0.138889 0.375000 -0.000000
v -0.561110 0.375000 -0.000000
v -0.861111 0.375000 0.500000
v 0.138889 0.125000 0.000000
v -0.561110 0.125000 0.000000
v -0.861111 0.125000 -0.500000
v 0.138889 0.125000 0.000000
v -0.861111 0.125000 0.500000
v -0.561110 0.125000 0.000000
v 0.138889 0.375000 -0.000000
v -0.861111 0.375000 -0.500000
v -0.861111 0.125000 -0.500000
v 0.138889 0.375000 -0.000000
v -0.861111 0.125000 -0.500000
v 0.138889 0.125000 0.000000
v -0.861111 0.375000 -0.500000
v -0.561110 0.375000 -0.000000
v -0.561110 0.125000 0.000000
v -0.861111 0.375000 -0.500000
v -0.561110 0.125000 0.000000
v -0.861111 0.125000 -0.500000
v -0.561110 0.375000 -0.000000
v -0.861111 0.375000 0.500000
v -0.861111 0.125000 0.500000
v -0.561110 0.375000 -0.000000
v -0.861111 0.125000 0.500000
v -0.561110 0.125000 0.000000
v -0.861111 0.375000 0.500000
v 0.138889 0.375000 -0.000000
v 0.138889 0.125000 0.000000
v -0.861111 0.375000 0.500000
v 0.138889 0.125000 0.000000
v -0.861111 0.125000 0.500000
v 1.138889 0.375000 -0.000000
v 0.138889 0.375000 -0.500000
v 0.438890 0.375000 -0.000000
v 1.138889 0.375000 -0.000000
v 0.438890 0.375000 -0.000000
v 0.138889 0.375000 0.500000
v 1.138889 0.125000 0.000000
v 0.438890 0.125000 0.000000
v 0.138889 0.125000 -0.500000
v 1.138889 0.125000 0.000000
v 0.138889 0.125000 0.500000
v 0.438890 0.125000 0.000000
v 1.138889 0.375000 -0.000000
v 0.138889 0.375000 -0.500000
v 0.138889 0.125000 -0.500000
v 1.138889 0.375000 -0.000000
v 0.138889 0.125000 -0.500000
v 1.138889 0.125000 0.000000
v 0.138889 0.375000 -0.500000
v 0.438890 0.375000 -0.000000
v 0.438890 0.125000 0.000000
v 0.138889 0.375000 -0.500000
v 0.438890 0.125000 0.000000
v 0.138889 0.125000 -0.500000
v 0.438890 0.375000 -0.000000
v 0.138889 0.375000 0.500000
v 0.138889 0.125000 0.500000
v 0.438890 0.375000 -0.000000
v 0.138889 0.125000 0.500000
v 0.438890 0.125000 0.000000
v 0.138889 0.375000 0.500000
v 1.138889 0.375000 -0.000000
v 1.138889 0.125000 0.000000
v 0.138889 0.375000 0.500000
v 1.138889 0.125000 0.000000
v 0.138889 0.125000 0.500000
vn -0.0000 1.0000 -0.0000
vn -0.0000 -1.0000 -0.0000
vn -0.4472 -0.0000 0.8944
vn 0.8575 -0.0000 -0.5145
vn 0.8575 -0.0000 0.5145
vn -0.4472 -0.0000 -0.8944
s 0
f 1//1 2//1 3//1
f 4//1 5//1 6//1
f 7//2 8//2 9//2
f 10//2 11//2 12//2
f 13//3 14//3 15//3
f 16//3 17//3 18//3
f 19//4 20//4 21//4
f 22//4 23//4 24//4
f 25//5 26//5 27//5
f 28//5 29//5 30//5
f 31//6 32//6 33//6
f 34//6 35//6 36//6
f 37//1 38//1 39//1
f 40//1 41//1 42//1
f 43//2 44//2 45//2
f 46//2 47//2 48//2
f 49//3 50//3 51//3
f 52//3 53//3 54//3
f 55//4 56//4 57//4
f 58//4 59//4 60//4
f 61//5 62//5 63//5
f 64//5 65//5 66//5
f 67//6 68//6 69//6
f 70//6 71//6 72//6
